<svg xmlns="http://www.w3.org/2000/svg" width="842" height="86" fill="none" viewBox="0 0 842 86"><path fill="url(#a)" d="M327.618 19.706c-18.271 0-33.09 14.841-33.09 33.14s14.819 33.14 33.09 33.14c5.88 0 11.414-1.548 16.206-4.247v3.6h16.884V52.845c0-18.299-14.819-33.14-33.09-33.14m0 49.37c-8.954 0-16.206-7.262-16.206-16.23s7.252-16.23 16.206-16.23 16.206 7.262 16.206 16.23-7.252 16.23-16.206 16.23M42.848 35.811c-7.11-1.137-15.528-2.464-21.14-7.026-3.563-2.874-2.065-7.42 1.687-9.915 7.299-4.784 19.437-2.1 21.88 6.647h19.076c0-15.6-16.458-25.704-31.813-25.514-8.623 0-16.647 2.1-22.827 7.23-7.472 6.095-11.209 17.7-6.542 26.288 7.677 12.757 26.2 12.568 38.733 17.683 3.374 1.721 5.439 3.631 5.439 7.231 0 7.815-6.92 11.052-14.787 11.052-7.473.19-13.085-5.526-13.842-12.568H0c.568 27.614 36.668 37.53 57.052 21.125 5.801-4.957 8.985-11.999 8.985-19.593.174-12.378-11.413-20.746-23.19-22.64m211.055-16.105c-18.271 0-33.089 14.841-33.089 33.14s14.818 33.14 33.089 33.14c14.551 0 26.91-9.41 31.34-22.467H266.12a16.16 16.16 0 0 1-12.202 5.542c-6.826 0-12.675-4.232-15.055-10.215h47.593c.363-1.942.536-3.963.536-6 0-18.299-14.819-33.14-33.09-33.14m-15.039 27.125c2.38-5.984 8.229-10.215 15.055-10.215s12.675 4.23 15.055 10.215zm-53.395-4.026c-.93 3.189-1.497 6.568-1.497 9.962v32.556h16.884V52.767C201.313 41.59 209.195 36 217.046 36V19.722h-.063c-14.441 0-27.194 9.378-31.514 23.083m-36.841 0c-.93 3.189-1.498 6.568-1.498 9.962v32.556h16.884V52.767C164.471 41.59 172.353 36 180.204 36V19.722h-.063c-14.44 0-27.194 9.378-31.513 23.083M122.711 52.94c-.93 22.356-31.513 22.356-32.254 0V20.385H73.573v32.54c0 3.379.568 6.757 1.498 9.962 4.32 13.72 17.073 23.099 31.513 23.099s27.194-9.379 31.513-23.083c.93-3.19 1.498-6.568 1.498-9.962V20.385h-16.884zm245.532 32.413h16.884V.634h-16.884zm86.561-61.163q3.597-3.602 8.391-5.663 4.802-2.057 10.278-2.056c4.799 0 9.134 1.126 13.018 3.373s7.002 5.244 9.363 8.976h19.867a42.7 42.7 0 0 0-6.394-11.605 43.2 43.2 0 0 0-9.645-9.148q-5.542-3.832-12.22-5.947C483.007.711 478.347.004 473.473.004q-9.248.001-17.414 3.374-8.162 3.377-14.273 9.204-6.105 5.835-9.59 13.666c-2.323 5.226-3.48 10.81-3.48 16.756 0 5.947 1.157 11.531 3.48 16.752q3.485 7.83 9.59 13.666c4.074 3.886 8.832 6.957 14.273 9.204Q464.225 86 473.473 86c4.874 0 9.515-.703 13.934-2.112q6.619-2.115 12.103-5.891a43.3 43.3 0 0 0 9.59-9.037 41.8 41.8 0 0 0 6.393-11.55h-19.867q-3.542 5.495-9.307 8.81-5.764 3.314-12.846 3.312-5.476.001-10.278-2.112-4.794-2.116-8.391-5.719-3.597-3.6-5.71-8.408-2.11-4.802-2.109-10.289c0-3.657.701-7.11 2.109-10.348q2.113-4.865 5.71-8.465m68.452 61.171h16.884V.642h-16.884zm222.86-61.409a32.94 32.94 0 0 0-16.206-4.247c-18.271 0-33.089 14.841-33.089 33.14 0 18.298 14.818 33.14 33.089 33.14a32.9 32.9 0 0 0 16.206-4.245v3.613H763V.634h-16.884zM729.91 69.076c-8.954 0-16.206-7.262-16.206-16.23s7.252-16.23 16.206-16.23 16.206 7.262 16.206 16.23-7.252 16.23-16.206 16.23M605.734 30.194q-4.621-4.46-10.789-7.03-6.165-2.575-13.246-2.574-7.079-.001-13.246 2.573c-4.107 1.712-7.708 4.058-10.789 7.031q-4.626 4.461-7.308 10.41-2.682 5.947-2.681 12.688c0 4.495.892 8.735 2.681 12.695 1.789 3.969 4.223 7.435 7.308 10.409 3.081 2.973 6.682 5.318 10.789 7.03q6.167 2.576 13.246 2.574 7.08.001 13.246-2.573 6.168-2.57 10.789-7.031c3.085-2.974 5.519-6.44 7.308-10.41q2.685-5.942 2.686-12.694c.001-6.752-.897-8.724-2.686-12.689q-2.682-5.948-7.308-10.409m-8.447 29.79q-1.317 3.146-3.596 5.435-2.286 2.281-5.367 3.657-3.086 1.374-6.625 1.373-3.54.001-6.621-1.373-3.087-1.375-5.366-3.657-2.286-2.289-3.596-5.435-1.316-3.14-1.315-6.692c0-2.368.437-4.588 1.315-6.686q1.31-3.147 3.596-5.435 2.279-2.282 5.366-3.657 3.081-1.374 6.621-1.373 3.54-.001 6.625 1.373 3.081 1.374 5.367 3.657 2.279 2.288 3.596 5.435 1.31 3.147 1.31 6.686c0 2.36-.436 4.598-1.31 6.692m75.114-7.043c-.93 22.356-31.513 22.356-32.254 0V20.385h-16.884v32.54c0 3.379.568 6.757 1.498 9.962 4.319 13.72 17.073 23.099 31.513 23.099s27.194-9.379 31.514-23.083c.93-3.19 1.497-6.568 1.497-9.962V20.385h-16.884z"/><path fill="url(#b)" d="M807.007 5.027c-7.027-.05-10.93 8.463-5.726 13.625 4.036 4.14 11.514 2.612 13.398-3.067h-4.498c-1.885 2.6-5.873 1.946-6.979-1.121h11.745c1.009-4.928-3.173-9.573-7.94-9.437m-3.817 6.554c1.386-3.622 6.249-3.622 7.623 0zm30.785-6.554c-4.45 0-8.024 3.572-8.024 7.983s3.574 7.983 8.024 7.983c1.423 0 2.748-.37 3.903-1.022v1.022H842V13.01c0-4.41-3.575-7.983-8.025-7.983m-.048 12.122a4.15 4.15 0 0 1-4.171-4.176c0-2.28 1.885-4.177 4.171-4.177 2.334 0 4.17 1.86 4.17 4.177a4.18 4.18 0 0 1-4.17 4.176M789.025 5.027a8 8 0 0 0-3.891.997V0H781v20.993h4.134v-1.01a7.9 7.9 0 0 0 3.891 1.01c4.45 0 8.025-3.573 8.025-7.983s-3.575-7.983-8.025-7.983m.036 12.11c-2.285.012-4.17-1.848-4.17-4.176a4.15 4.15 0 0 1 4.17-4.177c2.286 0 4.171 1.897 4.171 4.177a4.15 4.15 0 0 1-4.171 4.176m32.014-14.636h-4.134v10.3c0 .837.134 1.675.365 2.463 1.058 3.4 4.182 5.73 7.721 5.73v-3.992c-1.934 0-3.855-1.393-3.952-4.19v-3.62h3.952V5h-3.952z" opacity="0.5"/><defs><linearGradient id="a" x1="0" x2="819.541" y1="42.9998" y2="42.9998" gradientUnits="userSpaceOnUse"><stop stop-color="#252529"/><stop offset="1" stop-color="#080809"/></linearGradient><linearGradient id="b" x1="-178.132" x2="842" y1="53.347" y2="53.347" gradientUnits="userSpaceOnUse"><stop stop-color="#fff"/><stop offset="1" stop-color="#848484"/></linearGradient></defs></svg>