<svg xmlns="http://www.w3.org/2000/svg" width="315" height="262" fill="none" viewBox="0 0 315 262"><g filter="url(#a)"><path fill="url(#b)" fill-rule="evenodd" d="M247.485 50.028c-1.265-.53-1.897-.794-2.369-1.099-.465-.3-.766-.55-1.147-.95-.387-.407-.767-.983-1.526-2.134C224.231 18.225 192.931 0 157.373 0c-40.407 0-75.317 23.536-91.768 57.648-.707 1.465-1.06 2.198-1.458 2.715a5.7 5.7 0 0 1-1.232 1.214c-.523.39-1.26.732-2.733 1.415C24.645 79.48 0 115.477 0 157.23c0 56.893 45.758 103.099 102.478 103.823q.005 0 .005.004 0 .005.004.005h104.626q.009-.001.01-.011a.01.01 0 0 1 .01-.01C266.903 259.889 315 211.196 315 151.297c0-45.585-27.857-84.68-67.515-101.27" clip-rule="evenodd"/></g><g filter="url(#c)"><path fill="url(#d)" fill-rule="evenodd" d="M250.655 60.957c-4.992-2.51-7.488-3.766-8.654-4.574-1.588-1.102-1.531-1.053-2.886-2.431-.996-1.012-2.703-3.32-6.118-7.938-17.077-23.09-44.537-38.068-75.502-38.068-35.452 0-66.309 19.632-82.25 48.597-3.31 6.012-4.964 9.017-5.98 10.31-1.405 1.79-1.293 1.677-3.05 3.122-1.27 1.045-4.169 2.727-9.966 6.09-28.533 16.56-47.62 46.713-47.62 81.165 0 50.872 41.616 92.371 93.809 94.57a.047.047 0 0 1 .045.046c0 .026.02.046.045.046h106.178a.035.035 0 0 0 .035-.035c0-.019.015-.034.034-.035 54.239-1.992 97.594-46.357 97.594-100.795 0-39.357-22.662-73.449-55.714-90.07" clip-rule="evenodd"/></g><g filter="url(#e)"><path fill="url(#f)" d="M102.337 137.106c0-30.399 24.643-55.042 55.042-55.042s55.042 24.643 55.042 55.042-24.643 55.042-55.042 55.042h-55.042z" shape-rendering="crispEdges"/></g><g filter="url(#g)"><path fill="url(#h)" d="M160.317 149.397c0-23.61 19.14-42.75 42.75-42.75s42.749 19.14 42.749 42.75-19.139 42.749-42.749 42.749h-42.75z" shape-rendering="crispEdges"/></g><g filter="url(#i)"><rect width="73.3896" height="73.3896" x="65.6455" y="118.759" fill="url(#j)" rx="36.6948" shape-rendering="crispEdges"/></g><defs><linearGradient id="b" x1="-14.5913" x2="215.483" y1="1.13643" y2="307.963" gradientUnits="userSpaceOnUse"><stop stop-color="#FF00A0"/><stop offset="1" stop-color="#9600FF"/></linearGradient><linearGradient id="d" x1="138.625" x2="185.076" y1="23.1988" y2="253.176" gradientUnits="userSpaceOnUse"><stop stop-color="#252429"/><stop offset="1"/><stop offset="1"/><stop offset="1"/></linearGradient><linearGradient id="f" x1="157.379" x2="157.379" y1="82.0636" y2="192.148" gradientUnits="userSpaceOnUse"><stop stop-color="#fff"/><stop offset="1" stop-color="#fff" stop-opacity="0.7"/></linearGradient><linearGradient id="h" x1="203.067" x2="203.067" y1="106.647" y2="192.146" gradientUnits="userSpaceOnUse"><stop stop-color="#fff"/><stop offset="1" stop-color="#fff" stop-opacity="0.7"/></linearGradient><linearGradient id="j" x1="102.34" x2="102.34" y1="118.759" y2="192.148" gradientUnits="userSpaceOnUse"><stop stop-color="#fff"/><stop offset="1" stop-color="#fff" stop-opacity="0.7"/></linearGradient><filter id="a" width="315" height="262.325" x="0" y="0" color-interpolation-filters="sRGB" filterUnits="userSpaceOnUse"><feFlood flood-opacity="0" result="BackgroundImageFix"/><feBlend in="SourceGraphic" in2="BackgroundImageFix" result="shape"/><feColorMatrix in="SourceAlpha" result="hardAlpha" values="0 0 0 0 0 0 0 0 0 0 0 0 0 0 0 0 0 0 127 0"/><feOffset dy="1.26316"/><feGaussianBlur stdDeviation="1.26316"/><feComposite in2="hardAlpha" k2="-1" k3="1" operator="arithmetic"/><feColorMatrix values="0 0 0 0 1 0 0 0 0 1 0 0 0 0 1 0 0 0 0.95 0"/><feBlend in2="shape" result="effect1_innerShadow_5666_47"/></filter><filter id="c" width="297.739" height="245.209" x="8.62988" y="7.94617" color-interpolation-filters="sRGB" filterUnits="userSpaceOnUse"><feFlood flood-opacity="0" result="BackgroundImageFix"/><feBlend in="SourceGraphic" in2="BackgroundImageFix" result="shape"/><feColorMatrix in="SourceAlpha" result="hardAlpha" values="0 0 0 0 0 0 0 0 0 0 0 0 0 0 0 0 0 0 127 0"/><feOffset dy="1.26316"/><feGaussianBlur stdDeviation="1.26316"/><feComposite in2="hardAlpha" k2="-1" k3="1" operator="arithmetic"/><feColorMatrix values="0 0 0 0 1 0 0 0 0 1 0 0 0 0 1 0 0 0 0.75 0"/><feBlend in2="shape" result="effect1_innerShadow_5666_47"/></filter><filter id="e" width="178.294" height="178.295" x="68.2317" y="63.7478" color-interpolation-filters="sRGB" filterUnits="userSpaceOnUse"><feFlood flood-opacity="0" result="BackgroundImageFix"/><feColorMatrix in="SourceAlpha" result="hardAlpha" values="0 0 0 0 0 0 0 0 0 0 0 0 0 0 0 0 0 0 127 0"/><feOffset dy="15.7895"/><feGaussianBlur stdDeviation="17.0526"/><feComposite in2="hardAlpha" operator="out"/><feColorMatrix values="0 0 0 0 0 0 0 0 0 0 0 0 0 0 0 0 0 0 0.3 0"/><feBlend in2="BackgroundImageFix" result="effect1_dropShadow_5666_47"/><feColorMatrix in="SourceAlpha" result="hardAlpha" values="0 0 0 0 0 0 0 0 0 0 0 0 0 0 0 0 0 0 127 0"/><feOffset dy="5.6842"/><feGaussianBlur stdDeviation="0.631578"/><feComposite in2="hardAlpha" operator="out"/><feColorMatrix values="0 0 0 0 0 0 0 0 0 0 0 0 0 0 0 0 0 0 0.1 0"/><feBlend in2="effect1_dropShadow_5666_47" result="effect2_dropShadow_5666_47"/><feBlend in="SourceGraphic" in2="effect2_dropShadow_5666_47" result="shape"/><feColorMatrix in="SourceAlpha" result="hardAlpha" values="0 0 0 0 0 0 0 0 0 0 0 0 0 0 0 0 0 0 127 0"/><feOffset dy="-2.52631"/><feGaussianBlur stdDeviation="1.26316"/><feComposite in2="hardAlpha" k2="-1" k3="1" operator="arithmetic"/><feColorMatrix values="0 0 0 0 1 0 0 0 0 1 0 0 0 0 1 0 0 0 0.55 0"/><feBlend in2="shape" result="effect3_innerShadow_5666_47"/></filter><filter id="g" width="153.709" height="153.709" x="126.212" y="88.3315" color-interpolation-filters="sRGB" filterUnits="userSpaceOnUse"><feFlood flood-opacity="0" result="BackgroundImageFix"/><feColorMatrix in="SourceAlpha" result="hardAlpha" values="0 0 0 0 0 0 0 0 0 0 0 0 0 0 0 0 0 0 127 0"/><feOffset dy="15.7895"/><feGaussianBlur stdDeviation="17.0526"/><feComposite in2="hardAlpha" operator="out"/><feColorMatrix values="0 0 0 0 0 0 0 0 0 0 0 0 0 0 0 0 0 0 0.3 0"/><feBlend in2="BackgroundImageFix" result="effect1_dropShadow_5666_47"/><feColorMatrix in="SourceAlpha" result="hardAlpha" values="0 0 0 0 0 0 0 0 0 0 0 0 0 0 0 0 0 0 127 0"/><feOffset dy="5.6842"/><feGaussianBlur stdDeviation="0.631578"/><feComposite in2="hardAlpha" operator="out"/><feColorMatrix values="0 0 0 0 0 0 0 0 0 0 0 0 0 0 0 0 0 0 0.1 0"/><feBlend in2="effect1_dropShadow_5666_47" result="effect2_dropShadow_5666_47"/><feBlend in="SourceGraphic" in2="effect2_dropShadow_5666_47" result="shape"/><feColorMatrix in="SourceAlpha" result="hardAlpha" values="0 0 0 0 0 0 0 0 0 0 0 0 0 0 0 0 0 0 127 0"/><feOffset dy="-2.52631"/><feGaussianBlur stdDeviation="1.26316"/><feComposite in2="hardAlpha" k2="-1" k3="1" operator="arithmetic"/><feColorMatrix values="0 0 0 0 1 0 0 0 0 1 0 0 0 0 1 0 0 0 0.55 0"/><feBlend in2="shape" result="effect3_innerShadow_5666_47"/></filter><filter id="i" width="141.6" height="141.6" x="31.5403" y="100.443" color-interpolation-filters="sRGB" filterUnits="userSpaceOnUse"><feFlood flood-opacity="0" result="BackgroundImageFix"/><feColorMatrix in="SourceAlpha" result="hardAlpha" values="0 0 0 0 0 0 0 0 0 0 0 0 0 0 0 0 0 0 127 0"/><feOffset dy="15.7895"/><feGaussianBlur stdDeviation="17.0526"/><feComposite in2="hardAlpha" operator="out"/><feColorMatrix values="0 0 0 0 0 0 0 0 0 0 0 0 0 0 0 0 0 0 0.3 0"/><feBlend in2="BackgroundImageFix" result="effect1_dropShadow_5666_47"/><feColorMatrix in="SourceAlpha" result="hardAlpha" values="0 0 0 0 0 0 0 0 0 0 0 0 0 0 0 0 0 0 127 0"/><feOffset dy="5.6842"/><feGaussianBlur stdDeviation="0.631578"/><feComposite in2="hardAlpha" operator="out"/><feColorMatrix values="0 0 0 0 0 0 0 0 0 0 0 0 0 0 0 0 0 0 0.1 0"/><feBlend in2="effect1_dropShadow_5666_47" result="effect2_dropShadow_5666_47"/><feBlend in="SourceGraphic" in2="effect2_dropShadow_5666_47" result="shape"/><feColorMatrix in="SourceAlpha" result="hardAlpha" values="0 0 0 0 0 0 0 0 0 0 0 0 0 0 0 0 0 0 127 0"/><feOffset dy="-2.52631"/><feGaussianBlur stdDeviation="1.26316"/><feComposite in2="hardAlpha" k2="-1" k3="1" operator="arithmetic"/><feColorMatrix values="0 0 0 0 1 0 0 0 0 1 0 0 0 0 1 0 0 0 0.55 0"/><feBlend in2="shape" result="effect3_innerShadow_5666_47"/></filter></defs></svg>