<svg xmlns="http://www.w3.org/2000/svg" width="638" height="66" fill="none" viewBox="0 0 638 66"><path fill="url(#a)" d="M248.612 15.124c-13.865 0-25.11 11.39-25.11 25.432 0 14.043 11.245 25.433 25.11 25.433 4.462 0 8.661-1.187 12.298-3.26v2.763h12.812V40.556c0-14.043-11.245-25.432-25.11-25.432m0 37.888c-6.795 0-12.298-5.574-12.298-12.456S241.817 28.1 248.612 28.1s12.298 5.574 12.298 12.456c0 6.883-5.503 12.456-12.298 12.456M32.515 27.482c-5.395-.872-11.783-1.89-16.042-5.391-2.704-2.206-1.567-5.695 1.28-7.61 5.539-3.671 14.75-1.611 16.604 5.101h14.475c0-11.97-12.489-19.725-24.14-19.58-6.544 0-12.633 1.612-17.323 5.55-5.67 4.676-8.505 13.582-4.964 20.174 5.825 9.79 19.882 9.644 29.392 13.57 2.56 1.32 4.127 2.787 4.127 5.55 0 5.997-5.251 8.481-11.22 8.481-5.671.145-9.93-4.24-10.504-9.645H0c.43 21.192 27.826 28.802 43.294 16.212 4.402-3.804 6.818-9.208 6.818-15.036.132-9.5-8.66-15.922-17.597-17.376m160.159-12.358c-13.865 0-25.11 11.39-25.11 25.432 0 14.043 11.245 25.433 25.11 25.433 11.041 0 20.42-7.222 23.782-17.242h-14.511c-2.249 2.605-5.563 4.253-9.259 4.253-5.18 0-9.619-3.247-11.425-7.84h36.116c.275-1.49.407-3.04.407-4.604 0-14.043-11.245-25.432-25.11-25.432M181.261 35.94c1.806-4.592 6.245-7.84 11.425-7.84 5.179 0 9.618 3.248 11.424 7.84zm-40.518-3.09c-.706 2.448-1.137 5.04-1.137 7.646V65.48h12.813V40.496c.347-8.579 6.328-12.868 12.285-12.868V15.136h-.047c-10.958 0-20.636 7.197-23.914 17.714m-27.957 0c-.706 2.448-1.137 5.04-1.137 7.646V65.48h12.812V40.496c.347-8.579 6.329-12.868 12.286-12.868V15.136h-.048c-10.958 0-20.635 7.197-23.913 17.714m-19.667 7.78c-.706 17.157-23.914 17.157-24.476 0V15.645H55.83v24.972c0 2.593.43 5.186 1.136 7.645 3.278 10.53 12.956 17.727 23.914 17.727s20.636-7.197 23.914-17.714c.705-2.448 1.136-5.041 1.136-7.646V15.645H93.119zM279.44 65.504h12.812V.487H279.44zm65.687-46.939a20.1 20.1 0 0 1 6.367-4.346q3.643-1.579 7.799-1.578c3.642 0 6.932.864 9.879 2.589a20.4 20.4 0 0 1 7.105 6.889h15.076a32.9 32.9 0 0 0-4.852-8.907 33 33 0 0 0-7.319-7.02q-4.205-2.94-9.273-4.564-5.07-1.624-10.616-1.625-7.017 0-13.214 2.59-6.193 2.591-10.831 7.063-4.633 4.477-7.278 10.488-2.642 6.014-2.64 12.86-.001 6.845 2.64 12.855 2.644 6.01 7.278 10.488c3.092 2.982 6.702 5.34 10.831 7.064q6.197 2.588 13.214 2.589 5.546 0 10.574-1.621 5.023-1.624 9.184-4.521a33 33 0 0 0 7.278-6.935 32.2 32.2 0 0 0 4.851-8.864h-15.076q-2.687 4.216-7.062 6.76t-9.749 2.543q-4.156 0-7.799-1.621a20.7 20.7 0 0 1-6.367-4.389q-2.73-2.763-4.333-6.453-1.602-3.686-1.601-7.896-.001-4.212 1.601-7.942 1.603-3.733 4.333-6.495m51.944 46.945h12.812V.493h-12.812zm169.117-47.127a24.8 24.8 0 0 0-12.298-3.26c-13.865 0-25.11 11.39-25.11 25.433s11.245 25.433 25.11 25.433c4.468 0 8.663-1.184 12.298-3.257v2.772H579V.487h-12.812zm-12.298 34.63c-6.795 0-12.298-5.574-12.298-12.457 0-6.882 5.503-12.456 12.298-12.456s12.298 5.574 12.298 12.456c0 6.883-5.503 12.456-12.298 12.456m-94.231-29.84q-3.506-3.425-8.187-5.397-4.679-1.975-10.052-1.974-5.372 0-10.051 1.974c-3.117 1.314-5.85 3.114-8.187 5.396q-3.511 3.424-5.546 7.989-2.036 4.563-2.034 9.738c0 3.45.676 6.703 2.034 9.742a25.6 25.6 0 0 0 5.546 7.988c2.337 2.282 5.07 4.082 8.187 5.396q4.679 1.976 10.051 1.975 5.373.001 10.052-1.975 4.682-1.972 8.187-5.396a25.6 25.6 0 0 0 5.546-7.988q2.038-4.561 2.038-9.742c0-3.453-.68-6.696-2.038-9.738q-2.035-4.565-5.546-7.989m-6.41 22.861q-1 2.415-2.729 4.171a13.5 13.5 0 0 1-4.072 2.807q-2.342 1.054-5.028 1.053-2.686 0-5.024-1.053a13.4 13.4 0 0 1-4.072-2.807q-1.735-1.755-2.729-4.171-.998-2.41-.998-5.135c0-1.818.332-3.521.998-5.132q.994-2.415 2.729-4.17a13.4 13.4 0 0 1 4.072-2.808q2.338-1.054 5.024-1.053 2.686 0 5.028 1.053a13.5 13.5 0 0 1 4.072 2.807q1.73 1.756 2.729 4.171.995 2.415.995 5.132c0 1.81-.332 3.528-.995 5.135m57.001-5.405c-.706 17.157-23.914 17.157-24.476 0V15.645h-12.813v24.972c0 2.593.431 5.186 1.137 7.645 3.278 10.53 12.956 17.727 23.914 17.727s20.635-7.197 23.913-17.714c.706-2.448 1.137-5.041 1.137-7.646V15.645H510.25z"/><path fill="url(#b)" d="M611.612 4.07c-5.299-.04-8.243 6.85-4.318 11.03 3.044 3.35 8.682 2.114 10.104-2.484h-3.393c-1.421 2.105-4.428 1.576-5.263-.907h8.857c.761-3.99-2.393-7.75-5.987-7.64m-2.879 5.305c1.045-2.932 4.713-2.932 5.749 0zm23.216-5.306c-3.356 0-6.052 2.892-6.052 6.463 0 3.57 2.696 6.463 6.052 6.463 1.072 0 2.072-.3 2.943-.828v.828H638v-6.463c0-3.57-2.696-6.463-6.051-6.463m-.037 9.814c-1.76 0-3.145-1.506-3.145-3.381 0-1.845 1.421-3.381 3.145-3.381 1.76 0 3.145 1.506 3.145 3.38 0 1.876-1.421 3.382-3.145 3.382m-33.86-9.814c-1.064 0-2.063.29-2.935.808V0H592v16.995h3.117v-.818a5.67 5.67 0 0 0 2.935.818c3.355 0 6.051-2.893 6.051-6.463s-2.696-6.463-6.051-6.463m.027 9.804c-1.724.01-3.145-1.496-3.145-3.381 0-1.875 1.385-3.381 3.145-3.381 1.724 0 3.145 1.536 3.145 3.38 0 1.876-1.384 3.382-3.145 3.382M622.22 2.025h-3.117v8.337c0 .678.101 1.357.275 1.995.798 2.752 3.154 4.637 5.822 4.637v-3.23c-1.457 0-2.906-1.128-2.98-3.392V7.44h2.98V4.049h-2.98z" opacity="0.5"/><defs><linearGradient id="a" x1="0" x2="621.906" y1="32.9998" y2="32.9998" gradientUnits="userSpaceOnUse"><stop stop-color="#fff"/><stop offset="1" stop-color="#929294"/></linearGradient><linearGradient id="b" x1="-131.28" x2="638" y1="43.1857" y2="43.1857" gradientUnits="userSpaceOnUse"><stop stop-color="#fff"/><stop offset="1" stop-color="#929294"/></linearGradient></defs></svg>