<svg xmlns="http://www.w3.org/2000/svg" width="32" height="32" fill="none" viewBox="0 0 32 32"><g clip-path="url(#a)"><g fill-rule="evenodd" clip-rule="evenodd" filter="url(#b)"><path fill="url(#c)" d="M5.638 10.209c-.1.422-.1.87-.1 1.767v10.82c0 1.88 0 2.822.365 3.54a3.36 3.36 0 0 0 1.469 1.469c.718.366 1.66.366 3.541.366h6.324c.102 0 .153 0 .198.005a1 1 0 0 1 .12.023c.044.012.102.035.218.082a5.77 5.77 0 0 0 3.553.234c.366-.093.549-.139.673-.131a.7.7 0 0 1 .317.087c.11.057.218.165.433.38l.339.338a2.037 2.037 0 0 0 2.88-2.88l-.227-.228c-.227-.226-.34-.34-.398-.456a.7.7 0 0 1-.084-.332c-.004-.13.053-.321.168-.703a5.8 5.8 0 0 0 .243-1.66 5.7 5.7 0 0 0-.483-2.312 2 2 0 0 1-.097-.235 1 1 0 0 1-.027-.13c-.006-.048-.006-.104-.006-.214V8.267c0-1.882 0-2.823-.366-3.541a3.36 3.36 0 0 0-1.468-1.469c-.72-.366-1.66-.366-3.542-.366h-5.078c-.903 0-1.355 0-1.78.103-.377.09-.737.24-1.067.443-.373.23-.691.55-1.328 1.19L7.25 7.825c-.633.636-.949.954-1.175 1.324a3.7 3.7 0 0 0-.437 1.06"/><path fill="url(#d)" d="M5.638 10.209c-.1.422-.1.87-.1 1.767v10.82c0 1.88 0 2.822.365 3.54a3.36 3.36 0 0 0 1.469 1.469c.718.366 1.66.366 3.541.366h6.324c.102 0 .153 0 .198.005a1 1 0 0 1 .12.023c.044.012.102.035.218.082a5.77 5.77 0 0 0 3.553.234c.366-.093.549-.139.673-.131a.7.7 0 0 1 .317.087c.11.057.218.165.433.38l.339.338a2.037 2.037 0 0 0 2.88-2.88l-.227-.228c-.227-.226-.34-.34-.398-.456a.7.7 0 0 1-.084-.332c-.004-.13.053-.321.168-.703a5.8 5.8 0 0 0 .243-1.66 5.7 5.7 0 0 0-.483-2.312 2 2 0 0 1-.097-.235 1 1 0 0 1-.027-.13c-.006-.048-.006-.104-.006-.214V8.267c0-1.882 0-2.823-.366-3.541a3.36 3.36 0 0 0-1.468-1.469c-.72-.366-1.66-.366-3.542-.366h-5.078c-.903 0-1.355 0-1.78.103-.377.09-.737.24-1.067.443-.373.23-.691.55-1.328 1.19L7.25 7.825c-.633.636-.949.954-1.175 1.324a3.7 3.7 0 0 0-.437 1.06"/></g><path stroke="url(#e)" stroke-linejoin="bevel" stroke-miterlimit="10" stroke-opacity="0.3" stroke-width="1.12" d="M23.2 23.05c0 1.563-1.282 2.84-2.88 2.84-1.596 0-2.88-1.277-2.88-2.84s1.284-2.84 2.88-2.84c1.598 0 2.88 1.278 2.88 2.84Z"/><path fill="url(#f)" fill-rule="evenodd" d="M17.343 23.06a2.982 2.982 0 1 1 5.964 0 2.982 2.982 0 0 1-5.964 0m2.982-3.943a3.942 3.942 0 1 0 2.316 7.133l1.792 1.792a.48.48 0 1 0 .68-.678l-1.77-1.769a3.942 3.942 0 0 0-3.019-6.478" clip-rule="evenodd"/><path fill="url(#g)" fill-rule="evenodd" d="M17.343 23.06a2.982 2.982 0 1 1 5.964 0 2.982 2.982 0 0 1-5.964 0m2.982-3.943a3.942 3.942 0 1 0 2.316 7.133l1.792 1.792a.48.48 0 1 0 .68-.678l-1.77-1.769a3.942 3.942 0 0 0-3.019-6.478" clip-rule="evenodd"/><path fill="url(#h)" fill-opacity="0.3" fill-rule="evenodd" d="M21.937 18.823V6.57a.48.48 0 0 0-.48-.48h-7.246c-.34 0-.665.135-.905.375L9.112 10.66a1.28 1.28 0 0 0-.375.905v12.926c0 .265.215.48.48.48h6.975c.195.411.45.788.755 1.12h-7.73a1.6 1.6 0 0 1-1.6-1.6V11.565a2.4 2.4 0 0 1 .703-1.697l4.194-4.194a2.4 2.4 0 0 1 1.697-.703h7.246a1.6 1.6 0 0 1 1.6 1.6v12.863a4.6 4.6 0 0 0-1.12-.611" clip-rule="evenodd"/><path fill="url(#i)" fill-rule="evenodd" d="M14.21 5.451a2 2 0 0 0-.513.07v4.25a1.28 1.28 0 0 1-1.28 1.28h-4.16l-.088-.008a2 2 0 0 0-.072.522v12.926c0 .619.501 1.12 1.12 1.12h7.345c.251.362.554.685.898.96H9.217a2.08 2.08 0 0 1-2.08-2.08V11.565c0-.764.303-1.496.843-2.036l4.194-4.194a2.88 2.88 0 0 1 2.037-.844h7.166a2.08 2.08 0 0 1 2.08 2.08V19.77a4.6 4.6 0 0 0-.96-.692V6.57a1.12 1.12 0 0 0-1.12-1.12zm-5.434 4.64 3.96-3.961v3.64a.32.32 0 0 1-.32.32z" clip-rule="evenodd"/><path fill="url(#j)" fill-rule="evenodd" d="M14.21 5.451a2 2 0 0 0-.513.07v4.25a1.28 1.28 0 0 1-1.28 1.28h-4.16l-.088-.008a2 2 0 0 0-.072.522v12.926c0 .619.501 1.12 1.12 1.12h7.345c.251.362.554.685.898.96H9.217a2.08 2.08 0 0 1-2.08-2.08V11.565c0-.764.303-1.496.843-2.036l4.194-4.194a2.88 2.88 0 0 1 2.037-.844h7.166a2.08 2.08 0 0 1 2.08 2.08V19.77a4.6 4.6 0 0 0-.96-.692V6.57a1.12 1.12 0 0 0-1.12-1.12zm-5.434 4.64 3.96-3.961v3.64a.32.32 0 0 1-.32.32z" clip-rule="evenodd"/><rect width="5.12" height="0.96" x="10.9014" y="12.6593" fill="url(#k)" fill-opacity="0.4" rx="0.48"/><rect width="5.12" height="0.96" x="10.9014" y="17.4594" fill="url(#l)" fill-opacity="0.4" rx="0.48"/><rect width="3.28" height="0.96" x="10.9014" y="14.2594" fill="url(#m)" fill-opacity="0.4" rx="0.48"/><rect width="7.76" height="0.96" x="10.9014" y="15.8594" fill="url(#n)" fill-opacity="0.4" rx="0.48"/></g><defs><linearGradient id="c" x1="15.6132" x2="26.0385" y1="4.04135" y2="29.2882" gradientUnits="userSpaceOnUse"><stop stop-color="#fff"/><stop offset="1" stop-color="#D7D7D7"/></linearGradient><linearGradient id="d" x1="14.9608" x2="26.6345" y1="2.97674" y2="28.5158" gradientUnits="userSpaceOnUse"><stop stop-color="#322D37"/><stop offset="1" stop-color="#18151B"/></linearGradient><linearGradient id="e" x1="18.5464" x2="21.2877" y1="20.4462" y2="26.0501" gradientUnits="userSpaceOnUse"><stop stop-color="#FF00A0"/><stop offset="1" stop-color="#9600FF"/></linearGradient><linearGradient id="f" x1="16.93" x2="21.5381" y1="7.67027" y2="27.0482" gradientUnits="userSpaceOnUse"><stop stop-color="#4C4C4C"/><stop offset="1" stop-color="#1B1B1F"/></linearGradient><linearGradient id="g" x1="20.3579" x2="23.5079" y1="19.1172" y2="28.0519" gradientUnits="userSpaceOnUse"><stop stop-color="#F3F3F3"/><stop offset="1" stop-color="#8F8F95"/></linearGradient><linearGradient id="h" x1="11.355" x2="21.3683" y1="7.44322" y2="22.2341" gradientUnits="userSpaceOnUse"><stop stop-color="#FF00A0"/><stop offset="1" stop-color="#9600FF"/></linearGradient><linearGradient id="i" x1="14.4505" x2="23.8262" y1="4.49107" y2="24.581" gradientUnits="userSpaceOnUse"><stop stop-color="#4C4C4C"/><stop offset="1" stop-color="#1B1B1F"/></linearGradient><linearGradient id="j" x1="14.4505" x2="23.8262" y1="4.49107" y2="24.581" gradientUnits="userSpaceOnUse"><stop stop-color="#F3F3F3"/><stop offset="1" stop-color="#8F8F95"/></linearGradient><linearGradient id="k" x1="12.1408" x2="12.231" y1="12.7717" y2="13.7438" gradientUnits="userSpaceOnUse"><stop stop-color="#FF00A0"/><stop offset="1" stop-color="#9600FF"/></linearGradient><linearGradient id="l" x1="12.1408" x2="12.231" y1="17.5717" y2="18.5438" gradientUnits="userSpaceOnUse"><stop stop-color="#FF00A0"/><stop offset="1" stop-color="#9600FF"/></linearGradient><linearGradient id="m" x1="11.6954" x2="11.8345" y1="14.3718" y2="15.3321" gradientUnits="userSpaceOnUse"><stop stop-color="#FF00A0"/><stop offset="1" stop-color="#9600FF"/></linearGradient><linearGradient id="n" x1="12.7799" x2="12.8397" y1="15.9717" y2="16.9485" gradientUnits="userSpaceOnUse"><stop stop-color="#FF00A0"/><stop offset="1" stop-color="#9600FF"/></linearGradient><clipPath id="a"><path fill="#fff" d="M0 0h32v32H0z"/></clipPath><filter id="b" width="24.8683" height="30.7349" x="3.61711" y="1.69111" color-interpolation-filters="sRGB" filterUnits="userSpaceOnUse"><feFlood flood-opacity="0" result="BackgroundImageFix"/><feColorMatrix in="SourceAlpha" result="hardAlpha" values="0 0 0 0 0 0 0 0 0 0 0 0 0 0 0 0 0 0 127 0"/><feOffset dy="0.72"/><feGaussianBlur stdDeviation="0.96"/><feComposite in2="hardAlpha" operator="out"/><feColorMatrix values="0 0 0 0 0 0 0 0 0 0 0 0 0 0 0 0 0 0 0.25 0"/><feBlend in2="BackgroundImageFix" result="effect1_dropShadow_6425_1453"/><feBlend in="SourceGraphic" in2="effect1_dropShadow_6425_1453" result="shape"/><feColorMatrix in="SourceAlpha" result="hardAlpha" values="0 0 0 0 0 0 0 0 0 0 0 0 0 0 0 0 0 0 127 0"/><feOffset dy="0.160586"/><feGaussianBlur stdDeviation="0.08"/><feComposite in2="hardAlpha" k2="-1" k3="1" operator="arithmetic"/><feColorMatrix values="0 0 0 0 1 0 0 0 0 1 0 0 0 0 1 0 0 0 0.15 0"/><feBlend in2="shape" result="effect2_innerShadow_6425_1453"/></filter></defs></svg>