<svg xmlns="http://www.w3.org/2000/svg" width="32" height="32" fill="none" viewBox="0 0 32 32"><g clip-path="url(#a)"><g fill-rule="evenodd" clip-rule="evenodd" filter="url(#b)"><path fill="url(#c)" d="M26.842 2.58a3.28 3.28 0 0 1 3.282 3.281v7.854c0 1.28-.733 2.388-1.801 2.93-.296.15-.444.224-.511.293a.5.5 0 0 0-.134.214c-.032.091-.034.215-.038.463l-.016 1.145c-.02 1.39-1.652 2.128-2.709 1.223l-3.222-2.76a1.3 1.3 0 0 0-.2-.156.6.6 0 0 0-.156-.057c-.061-.013-.125-.013-.254-.013h-6.9a3.28 3.28 0 0 1-3.282-3.282V5.86a3.28 3.28 0 0 1 3.282-3.282z"/><path fill="url(#d)" d="M26.842 2.58a3.28 3.28 0 0 1 3.282 3.281v7.854c0 1.28-.733 2.388-1.801 2.93-.296.15-.444.224-.511.293a.5.5 0 0 0-.134.214c-.032.091-.034.215-.038.463l-.016 1.145c-.02 1.39-1.652 2.128-2.709 1.223l-3.222-2.76a1.3 1.3 0 0 0-.2-.156.6.6 0 0 0-.156-.057c-.061-.013-.125-.013-.254-.013h-6.9a3.28 3.28 0 0 1-3.282-3.282V5.86a3.28 3.28 0 0 1 3.282-3.282z"/><path fill="url(#e)" d="M26.842 2.58a3.28 3.28 0 0 1 3.282 3.281v7.854c0 1.28-.733 2.388-1.801 2.93-.296.15-.444.224-.511.293a.5.5 0 0 0-.134.214c-.032.091-.034.215-.038.463l-.016 1.145c-.02 1.39-1.652 2.128-2.709 1.223l-3.222-2.76a1.3 1.3 0 0 0-.2-.156.6.6 0 0 0-.156-.057c-.061-.013-.125-.013-.254-.013h-6.9a3.28 3.28 0 0 1-3.282-3.282V5.86a3.28 3.28 0 0 1 3.282-3.282z"/></g><mask id="g" fill="#fff"><path fill-rule="evenodd" d="M28.279 5.244c.204.4.204.926.204 1.976v5.135c0 1.05 0 1.575-.204 1.976-.18.353-.467.64-.82.82-.217.11-.471.161-.826.185a.61.61 0 0 0-.58.6l.01 2.427a.234.234 0 0 1-.394.172l-3.254-3.023a.6.6 0 0 0-.398-.157h-6.474c-1.05 0-1.576 0-1.977-.204a1.88 1.88 0 0 1-.82-.82c-.204-.4-.204-.926-.204-1.976V7.22c0-1.05 0-1.575.204-1.976.18-.353.467-.64.82-.82.401-.204.926-.204 1.977-.204h9.94c1.05 0 1.575 0 1.976.204.353.18.64.467.82.82" clip-rule="evenodd"/></mask><path fill="url(#f)" fill-opacity="0.4" d="m28.279 5.244-.998.508zm0 9.087-.998-.508zm-.82.82-.508-.998zm-1.396 3.212-1.12.004zm-.394.172.762-.82zm-12.103-3.384-.508.998zm-.82-.82-.998.509zm0-9.087-.998-.509zm.82-.82-.508-.998zm13.893 0-.508.998zm-5.044 11.088-.762.82zm4.218-.176.073 1.117zm.73-8.116c0-.543 0-.884-.021-1.14-.02-.244-.053-.311-.06-.328l1.995-1.017c.196.385.266.78.297 1.162.03.37.03.817.03 1.323zm0 5.135V7.22h2.24v5.135zm-.082 1.468c.008-.017.04-.084.06-.328.021-.256.022-.597.022-1.14h2.24c0 .506.001.954-.029 1.322-.031.383-.101.778-.297 1.163zm-.33.33a.76.76 0 0 0 .33-.33l1.996 1.017a3 3 0 0 1-1.31 1.309zm-.39.065c.294-.02.371-.056.39-.065l1.017 1.996c-.416.212-.847.277-1.262.304zm.612 1.714.01 2.426-2.24.01-.01-2.427zm.01 2.426c.005 1.186-1.408 1.805-2.276.998l1.524-1.641a.886.886 0 0 0-1.488.652zm-2.276.998-3.254-3.024 1.525-1.64 3.253 3.023zm-9.364-5.12h6.474v2.24h-6.474zm-1.468-.083c.016.008.084.04.327.06.257.021.597.022 1.14.022v2.24c-.506 0-.953.001-1.322-.029-.382-.031-.778-.101-1.162-.297zm-.33-.33a.76.76 0 0 0 .33.33l-1.017 1.996a3 3 0 0 1-1.31-1.31zm-.083-1.469c0 .544 0 .885.022 1.141.02.244.052.311.06.328L11.75 14.84c-.197-.385-.267-.78-.298-1.162-.03-.37-.029-.817-.029-1.324zm0-5.134v5.135h-2.24V7.22zm.082-1.468c-.008.017-.04.084-.06.328-.021.256-.022.597-.022 1.14h-2.24c0-.506 0-.954.03-1.323.03-.382.1-.777.297-1.162zm.33-.33a.76.76 0 0 0-.33.33L11.75 4.735a3 3 0 0 1 1.309-1.309zm1.469-.082c-.544 0-.884 0-1.14.022-.244.02-.312.052-.328.06l-1.017-1.996c.384-.196.78-.266 1.162-.297.369-.03.816-.03 1.323-.03zm9.94 0h-9.94V3.1h9.94zm1.468.082c-.017-.008-.084-.04-.328-.06a16 16 0 0 0-1.14-.022V3.1c.506 0 .954-.001 1.323.029.382.031.777.101 1.162.297zm.33.33a.76.76 0 0 0-.33-.33l1.017-1.996a3 3 0 0 1 1.309 1.31zm-5.628 10.58a.53.53 0 0 0 .364.143v-2.24a1.7 1.7 0 0 1 1.16.457zm5.054.121a.51.51 0 0 0 .466-.521l-2.24.01c-.004-.964.765-1.667 1.627-1.724z" mask="url(#g)"/><path fill="url(#h)" d="m28.279 5.244-.428.218zm0 9.087-.428-.218zm-.82.82-.218-.428zm-1.396 3.212-.48.002zm-.394.172.327-.351zm-12.103-3.384-.218.428zm-.82-.82-.427.218zm0-9.087-.427-.218zm.82-.82-.218-.428zm13.893 0-.218.428zm-5.044 11.088-.326.352zm4.218-.176.032.479zm1.37-8.116c0-.533 0-.904-.024-1.192-.023-.283-.066-.445-.128-.566l.856-.436c.142.28.201.581.23.924.027.336.026.753.026 1.27zm0 5.135V7.22h.96v5.135zm-.152 1.758c.062-.121.105-.283.128-.566.024-.288.024-.66.024-1.193h.96c0 .518 0 .935-.027 1.271-.028.343-.087.645-.23.924zm-.61.61c.263-.134.477-.347.61-.61l.856.436a2.36 2.36 0 0 1-1.03 1.03zm-.64.134c.33-.022.508-.066.64-.134l.436.855c-.302.155-.632.212-1.012.237zm-.068 1.078.01 2.426-.96.003-.01-2.425zm.01 2.426a.714.714 0 0 1-1.2.526l.653-.703a.246.246 0 0 0-.413.18zm-1.2.526-3.254-3.023.653-.704 3.254 3.024zm-9.8-4.012h6.474v.96h-6.474zm-1.76-.152c.123.062.284.105.567.128.289.024.66.024 1.193.024v.96c-.518 0-.934 0-1.271-.027-.343-.028-.644-.087-.924-.23zm-.609-.61c.134.263.347.476.61.61l-.436.855a2.36 2.36 0 0 1-1.03-1.029zm-.152-1.758c0 .533 0 .904.024 1.192.023.283.066.445.128.566l-.855.436c-.143-.28-.202-.581-.23-.924-.027-.336-.027-.753-.027-1.27zm0-5.135v5.135h-.96V7.22zm.152-1.758c-.062.121-.105.283-.128.566-.024.288-.024.66-.024 1.192h-.96c0-.517 0-.934.027-1.27.028-.343.087-.645.23-.924zm.61-.61a1.4 1.4 0 0 0-.61.61l-.855-.436a2.36 2.36 0 0 1 1.03-1.03zm1.759-.152c-.533 0-.904 0-1.193.024-.283.023-.444.066-.566.128l-.436-.856c.28-.142.581-.201.924-.23.337-.027.753-.026 1.27-.026zm9.94 0h-9.94v-.96h9.94zm1.758.152c-.121-.062-.283-.105-.566-.128a16 16 0 0 0-1.192-.024v-.96c.517 0 .934 0 1.27.027.343.028.645.087.924.23zm.61.61a1.4 1.4 0 0 0-.61-.61l.436-.856c.444.226.804.587 1.03 1.03zM22.09 15.864a.1.1 0 0 0-.072-.029v-.96c.269 0 .528.102.725.285zm4.576-.05c-.09.006-.132.073-.132.12l-.96.005c-.003-.598.475-1.046 1.029-1.082z"/><path fill="url(#i)" d="m28.279 5.244-.428.218zm0 9.087-.428-.218zm-.82.82-.218-.428zm-1.396 3.212-.48.002zm-.394.172.327-.351zm-12.103-3.384-.218.428zm-.82-.82-.427.218zm0-9.087-.427-.218zm.82-.82-.218-.428zm13.893 0-.218.428zm-5.044 11.088-.326.352zm4.218-.176.032.479zm1.37-8.116c0-.533 0-.904-.024-1.192-.023-.283-.066-.445-.128-.566l.856-.436c.142.28.201.581.23.924.027.336.026.753.026 1.27zm0 5.135V7.22h.96v5.135zm-.152 1.758c.062-.121.105-.283.128-.566.024-.288.024-.66.024-1.193h.96c0 .518 0 .935-.027 1.271-.028.343-.087.645-.23.924zm-.61.61c.263-.134.477-.347.61-.61l.856.436a2.36 2.36 0 0 1-1.03 1.03zm-.64.134c.33-.022.508-.066.64-.134l.436.855c-.302.155-.632.212-1.012.237zm-.068 1.078.01 2.426-.96.003-.01-2.425zm.01 2.426a.714.714 0 0 1-1.2.526l.653-.703a.246.246 0 0 0-.413.18zm-1.2.526-3.254-3.023.653-.704 3.254 3.024zm-9.8-4.012h6.474v.96h-6.474zm-1.76-.152c.123.062.284.105.567.128.289.024.66.024 1.193.024v.96c-.518 0-.934 0-1.271-.027-.343-.028-.644-.087-.924-.23zm-.609-.61c.134.263.347.476.61.61l-.436.855a2.36 2.36 0 0 1-1.03-1.029zm-.152-1.758c0 .533 0 .904.024 1.192.023.283.066.445.128.566l-.855.436c-.143-.28-.202-.581-.23-.924-.027-.336-.027-.753-.027-1.27zm0-5.135v5.135h-.96V7.22zm.152-1.758c-.062.121-.105.283-.128.566-.024.288-.024.66-.024 1.192h-.96c0-.517 0-.934.027-1.27.028-.343.087-.645.23-.924zm.61-.61a1.4 1.4 0 0 0-.61.61l-.855-.436a2.36 2.36 0 0 1 1.03-1.03zm1.759-.152c-.533 0-.904 0-1.193.024-.283.023-.444.066-.566.128l-.436-.856c.28-.142.581-.201.924-.23.337-.027.753-.026 1.27-.026zm9.94 0h-9.94v-.96h9.94zm1.758.152c-.121-.062-.283-.105-.566-.128a16 16 0 0 0-1.192-.024v-.96c.517 0 .934 0 1.27.027.343.028.645.087.924.23zm.61.61a1.4 1.4 0 0 0-.61-.61l.436-.856c.444.226.804.587 1.03 1.03zM22.09 15.864a.1.1 0 0 0-.072-.029v-.96c.269 0 .528.102.725.285zm4.576-.05c-.09.006-.132.073-.132.12l-.96.005c-.003-.598.475-1.046 1.029-1.082z"/><g fill-rule="evenodd" clip-rule="evenodd" filter="url(#j)"><path fill="url(#k)" d="M5.391 11.253a3.28 3.28 0 0 0-3.282 3.282v7.854c0 1.28.733 2.388 1.802 2.93.295.149.443.224.51.293.073.073.1.117.135.214.032.091.034.215.037.463l.016 1.145c.02 1.39 1.653 2.128 2.709 1.223l3.222-2.76c.098-.084.146-.126.201-.156a.6.6 0 0 1 .155-.057c.062-.014.126-.014.254-.014h6.9a3.28 3.28 0 0 0 3.283-3.282v-7.853a3.28 3.28 0 0 0-3.282-3.282z"/><path fill="url(#l)" d="M5.391 11.253a3.28 3.28 0 0 0-3.282 3.282v7.854c0 1.28.733 2.388 1.802 2.93.295.149.443.224.51.293.073.073.1.117.135.214.032.091.034.215.037.463l.016 1.145c.02 1.39 1.653 2.128 2.709 1.223l3.222-2.76c.098-.084.146-.126.201-.156a.6.6 0 0 1 .155-.057c.062-.014.126-.014.254-.014h6.9a3.28 3.28 0 0 0 3.283-3.282v-7.853a3.28 3.28 0 0 0-3.282-3.282z"/><path fill="url(#m)" d="M5.391 11.253a3.28 3.28 0 0 0-3.282 3.282v7.854c0 1.28.733 2.388 1.802 2.93.295.149.443.224.51.293.073.073.1.117.135.214.032.091.034.215.037.463l.016 1.145c.02 1.39 1.653 2.128 2.709 1.223l3.222-2.76c.098-.084.146-.126.201-.156a.6.6 0 0 1 .155-.057c.062-.014.126-.014.254-.014h6.9a3.28 3.28 0 0 0 3.283-3.282v-7.853a3.28 3.28 0 0 0-3.282-3.282z"/></g><mask id="o" fill="#fff"><path fill-rule="evenodd" d="M3.955 13.918c-.204.4-.204.926-.204 1.976v5.134c0 1.05 0 1.576.204 1.977.18.353.467.64.82.82.218.11.472.161.826.184a.61.61 0 0 1 .58.601l-.01 2.426c0 .206.244.313.394.173l3.254-3.023a.6.6 0 0 1 .399-.157h6.474c1.05 0 1.575 0 1.976-.204.353-.18.64-.467.82-.82.204-.401.204-.926.204-1.977v-5.134c0-1.05 0-1.575-.204-1.976a1.88 1.88 0 0 0-.82-.82c-.4-.204-.926-.204-1.976-.204h-9.94c-1.05 0-1.576 0-1.977.204-.353.18-.64.467-.82.82" clip-rule="evenodd"/></mask><path fill="url(#n)" fill-opacity="0.4" d="m3.955 13.918.998.508zm0 9.087.998-.508zm.82.82.508-.998zm1.396 3.211 1.12.005zm.394.173-.762-.82zm12.103-3.384.509.998zm.82-.82.998.509zm0-9.087.998-.509zm-.82-.82.509-.998zm-13.893 0 .508.998zm5.044 11.088.762.82zM5.6 24.009l-.073 1.118zm-.73-8.115c0-.543 0-.884.022-1.14.02-.244.052-.312.06-.328l-1.996-1.017c-.196.385-.266.78-.297 1.162-.03.37-.029.817-.029 1.323zm0 5.134v-5.134H2.63v5.134zm.082 1.469c-.008-.017-.04-.085-.06-.328a16 16 0 0 1-.022-1.14H2.63c0 .506 0 .953.03 1.322.03.382.1.778.296 1.163zm.33.33a.76.76 0 0 1-.33-.33l-1.996 1.017a3 3 0 0 0 1.31 1.309zm.391.065c-.295-.02-.372-.056-.39-.065l-1.017 1.996c.416.212.847.277 1.26.304zm-.613 1.714-.01 2.426 2.24.009.01-2.426zm-.01 2.426c-.004 1.185 1.408 1.805 2.277.997l-1.525-1.64a.886.886 0 0 1 1.488.652zm2.277.997 3.253-3.023-1.524-1.64-3.254 3.023zm9.364-5.12h-6.474v2.24h6.474zm1.468-.082c-.017.008-.084.04-.328.06-.256.021-.597.022-1.14.022v2.24c.506 0 .954.001 1.323-.03.382-.03.777-.1 1.162-.296zm.33-.33a.76.76 0 0 1-.33.33l1.017 1.996a3 3 0 0 0 1.309-1.31zm.082-1.469c0 .544 0 .884-.021 1.14-.02.244-.053.312-.061.329l1.996 1.017c.196-.385.266-.78.297-1.163.03-.369.03-.816.03-1.323zm0-5.134v5.134h2.24v-5.134zm-.082-1.468c.008.016.04.084.06.328.021.256.022.597.022 1.14h2.24c0-.506.001-.954-.029-1.323-.031-.382-.101-.777-.297-1.162zm-.33-.33a.76.76 0 0 1 .33.33l1.996-1.017a3 3 0 0 0-1.31-1.309zm-1.468-.082c.543 0 .884 0 1.14.021.244.02.311.053.328.06l1.017-1.995c-.385-.196-.78-.266-1.162-.297-.37-.03-.817-.03-1.323-.03zm-9.94 0h9.94v-2.24h-9.94zm-1.469.082c.017-.008.085-.04.328-.06.257-.022.597-.022 1.14-.022v-2.24c-.506 0-.953-.001-1.322.029-.382.031-.778.101-1.162.297zm-.33.33a.76.76 0 0 1 .33-.33L4.267 12.1a3 3 0 0 0-1.31 1.31zm5.628 10.58a.53.53 0 0 1-.363.143v-2.24c-.43 0-.846.163-1.161.456zm-5.053.121a.51.51 0 0 1-.467-.521l2.24.009c.004-.963-.764-1.667-1.627-1.723z" mask="url(#o)"/><path fill="url(#p)" d="m3.955 13.918.428.218zm0 9.087.428-.218zm.82.82.218-.428zm1.396 3.211.48.002zm.394.173-.326-.351zm12.103-3.384.218.427zm.82-.82.428.218zm0-9.087.428-.218zm-.82-.82.218-.428zm-13.893 0 .218.428zm5.044 11.088.327.352zM5.6 24.009l-.031.48zm-1.37-8.115c0-.533 0-.904.024-1.192.023-.284.066-.445.128-.566l-.855-.436c-.143.28-.202.581-.23.923-.027.337-.027.754-.027 1.271zm0 5.134v-5.134h-.96v5.134zm.152 1.76c-.062-.122-.105-.284-.128-.567a16 16 0 0 1-.024-1.193h-.96c0 .518 0 .934.027 1.271.028.343.087.644.23.924zm.61.609a1.4 1.4 0 0 1-.61-.61l-.855.436c.226.443.586.803 1.03 1.03zm.64.134c-.33-.022-.508-.067-.64-.134l-.436.855c.303.155.633.212 1.013.236zm.068 1.078-.01 2.425.96.004.01-2.426zm-.01 2.425a.714.714 0 0 0 1.201.527l-.653-.703a.246.246 0 0 1 .412.18zm1.201.527 3.254-3.023-.654-.704-3.253 3.024zm9.8-4.012h-6.474v.96h6.474zm1.758-.152c-.121.062-.283.105-.566.128-.288.024-.66.024-1.192.024v.96c.517 0 .934 0 1.27-.027.343-.028.645-.087.924-.23zm.61-.61a1.4 1.4 0 0 1-.61.61l.436.855a2.36 2.36 0 0 0 1.03-1.029zm.152-1.759c0 .534 0 .904-.024 1.193-.023.283-.066.445-.128.566l.856.436c.142-.28.201-.581.23-.924.027-.337.026-.753.026-1.27zm0-5.134v5.134h.96v-5.134zm-.152-1.758c.062.121.105.283.128.566.024.288.024.66.024 1.192h.96c0-.517 0-.934-.027-1.27-.028-.343-.087-.645-.23-.924zm-.61-.61c.263.133.477.347.61.61l.856-.436a2.36 2.36 0 0 0-1.03-1.03zm-1.758-.152c.533 0 .904 0 1.192.024.283.023.445.066.566.128l.436-.856c-.28-.142-.581-.201-.924-.23-.336-.027-.753-.026-1.27-.026zm-9.94 0h9.94v-.96h-9.94zm-1.76.152c.123-.062.284-.105.567-.128.289-.024.66-.024 1.193-.024v-.96c-.518 0-.934 0-1.271.027-.343.028-.644.087-.924.23zm-.609.61c.134-.263.347-.477.61-.61l-.436-.856a2.36 2.36 0 0 0-1.03 1.03zm5.763 10.402a.1.1 0 0 1 .072-.029v-.96c-.27 0-.529.102-.726.285zm-4.576-.05c.09.006.132.073.131.12l.96.004c.003-.597-.475-1.045-1.029-1.081z"/><path fill="url(#q)" d="m3.955 13.918.428.218zm0 9.087.428-.218zm.82.82.218-.428zm1.396 3.211.48.002zm.394.173-.326-.351zm12.103-3.384.218.427zm.82-.82.428.218zm0-9.087.428-.218zm-.82-.82.218-.428zm-13.893 0 .218.428zm5.044 11.088.327.352zM5.6 24.009l-.031.48zm-1.37-8.115c0-.533 0-.904.024-1.192.023-.284.066-.445.128-.566l-.855-.436c-.143.28-.202.581-.23.923-.027.337-.027.754-.027 1.271zm0 5.134v-5.134h-.96v5.134zm.152 1.76c-.062-.122-.105-.284-.128-.567a16 16 0 0 1-.024-1.193h-.96c0 .518 0 .934.027 1.271.028.343.087.644.23.924zm.61.609a1.4 1.4 0 0 1-.61-.61l-.855.436c.226.443.586.803 1.03 1.03zm.64.134c-.33-.022-.508-.067-.64-.134l-.436.855c.303.155.633.212 1.013.236zm.068 1.078-.01 2.425.96.004.01-2.426zm-.01 2.425a.714.714 0 0 0 1.201.527l-.653-.703a.246.246 0 0 1 .412.18zm1.201.527 3.254-3.023-.654-.704-3.253 3.024zm9.8-4.012h-6.474v.96h6.474zm1.758-.152c-.121.062-.283.105-.566.128-.288.024-.66.024-1.192.024v.96c.517 0 .934 0 1.27-.027.343-.028.645-.087.924-.23zm.61-.61a1.4 1.4 0 0 1-.61.61l.436.855a2.36 2.36 0 0 0 1.03-1.029zm.152-1.759c0 .534 0 .904-.024 1.193-.023.283-.066.445-.128.566l.856.436c.142-.28.201-.581.23-.924.027-.337.026-.753.026-1.27zm0-5.134v5.134h.96v-5.134zm-.152-1.758c.062.121.105.283.128.566.024.288.024.66.024 1.192h.96c0-.517 0-.934-.027-1.27-.028-.343-.087-.645-.23-.924zm-.61-.61c.263.133.477.347.61.61l.856-.436a2.36 2.36 0 0 0-1.03-1.03zm-1.758-.152c.533 0 .904 0 1.192.024.283.023.445.066.566.128l.436-.856c-.28-.142-.581-.201-.924-.23-.336-.027-.753-.026-1.27-.026zm-9.94 0h9.94v-.96h-9.94zm-1.76.152c.123-.062.284-.105.567-.128.289-.024.66-.024 1.193-.024v-.96c-.518 0-.934 0-1.271.027-.343.028-.644.087-.924.23zm-.609.61c.134-.263.347-.477.61-.61l-.436-.856a2.36 2.36 0 0 0-1.03 1.03zm5.763 10.402a.1.1 0 0 1 .072-.029v-.96c-.27 0-.529.102-.726.285zm-4.576-.05c.09.006.132.073.131.12l.96.004c.003-.597-.475-1.045-1.029-1.081z"/></g><defs><linearGradient id="c" x1="24.7388" x2="21.4206" y1="4.589" y2="20.5008" gradientUnits="userSpaceOnUse"><stop stop-color="#fff"/><stop offset="1" stop-color="#D7D7D7"/></linearGradient><linearGradient id="d" x1="21.5102" x2="16.9972" y1="3.80716" y2="19.8801" gradientUnits="userSpaceOnUse"><stop stop-color="#322D37"/><stop offset="1" stop-color="#18151B"/></linearGradient><linearGradient id="e" x1="21.4655" x2="16.202" y1="3.31142" y2="20.5157" gradientUnits="userSpaceOnUse"><stop stop-color="#fff"/><stop offset="1" stop-color="#D7D7D7"/></linearGradient><linearGradient id="f" x1="23.9133" x2="19.0664" y1="5.90279" y2="18.7607" gradientUnits="userSpaceOnUse"><stop stop-color="#FF00A0"/><stop offset="1" stop-color="#9600FF"/></linearGradient><linearGradient id="h" x1="21.4978" x2="16.5961" y1="2.54874" y2="19.1352" gradientUnits="userSpaceOnUse"><stop stop-color="#F3F3F3"/><stop offset="1" stop-color="#8F8F95"/></linearGradient><linearGradient id="i" x1="21.4148" x2="16.7605" y1="4.21971" y2="19.0089" gradientUnits="userSpaceOnUse"><stop stop-color="#4C4C4C"/><stop offset="1" stop-color="#1B1B1F"/></linearGradient><linearGradient id="k" x1="7.49464" x2="10.8128" y1="13.2628" y2="29.1746" gradientUnits="userSpaceOnUse"><stop stop-color="#fff"/><stop offset="1" stop-color="#D7D7D7"/></linearGradient><linearGradient id="l" x1="10.7232" x2="15.2362" y1="12.481" y2="28.554" gradientUnits="userSpaceOnUse"><stop stop-color="#322D37"/><stop offset="1" stop-color="#18151B"/></linearGradient><linearGradient id="m" x1="10.7679" x2="16.0314" y1="11.9852" y2="29.1896" gradientUnits="userSpaceOnUse"><stop stop-color="#fff"/><stop offset="1" stop-color="#D7D7D7"/></linearGradient><linearGradient id="n" x1="8.32103" x2="13.168" y1="14.5766" y2="27.4345" gradientUnits="userSpaceOnUse"><stop stop-color="#FF00A0"/><stop offset="1" stop-color="#9600FF"/></linearGradient><linearGradient id="p" x1="10.7366" x2="15.6382" y1="11.2226" y2="27.809" gradientUnits="userSpaceOnUse"><stop stop-color="#F3F3F3"/><stop offset="1" stop-color="#8F8F95"/></linearGradient><linearGradient id="q" x1="10.8196" x2="15.4739" y1="12.8935" y2="27.6827" gradientUnits="userSpaceOnUse"><stop stop-color="#4C4C4C"/><stop offset="1" stop-color="#1B1B1F"/></linearGradient><filter id="b" width="23.0636" height="21.6418" x="8.98039" y="1.3791" color-interpolation-filters="sRGB" filterUnits="userSpaceOnUse"><feFlood flood-opacity="0" result="BackgroundImageFix"/><feColorMatrix in="SourceAlpha" result="hardAlpha" values="0 0 0 0 0 0 0 0 0 0 0 0 0 0 0 0 0 0 127 0"/><feOffset dy="0.72"/><feGaussianBlur stdDeviation="0.96"/><feComposite in2="hardAlpha" operator="out"/><feColorMatrix values="0 0 0 0 0 0 0 0 0 0 0 0 0 0 0 0 0 0 0.25 0"/><feBlend in2="BackgroundImageFix" result="effect1_dropShadow_6466_1278"/><feBlend in="SourceGraphic" in2="effect1_dropShadow_6466_1278" result="shape"/><feColorMatrix in="SourceAlpha" result="hardAlpha" values="0 0 0 0 0 0 0 0 0 0 0 0 0 0 0 0 0 0 127 0"/><feOffset dy="0.160586"/><feGaussianBlur stdDeviation="0.08"/><feComposite in2="hardAlpha" k2="-1" k3="1" operator="arithmetic"/><feColorMatrix values="0 0 0 0 1 0 0 0 0 1 0 0 0 0 1 0 0 0 0.15 0"/><feBlend in2="shape" result="effect2_innerShadow_6466_1278"/></filter><filter id="j" width="23.0636" height="21.6418" x="0.189375" y="10.0529" color-interpolation-filters="sRGB" filterUnits="userSpaceOnUse"><feFlood flood-opacity="0" result="BackgroundImageFix"/><feColorMatrix in="SourceAlpha" result="hardAlpha" values="0 0 0 0 0 0 0 0 0 0 0 0 0 0 0 0 0 0 127 0"/><feOffset dy="0.72"/><feGaussianBlur stdDeviation="0.96"/><feComposite in2="hardAlpha" operator="out"/><feColorMatrix values="0 0 0 0 0 0 0 0 0 0 0 0 0 0 0 0 0 0 0.25 0"/><feBlend in2="BackgroundImageFix" result="effect1_dropShadow_6466_1278"/><feBlend in="SourceGraphic" in2="effect1_dropShadow_6466_1278" result="shape"/><feColorMatrix in="SourceAlpha" result="hardAlpha" values="0 0 0 0 0 0 0 0 0 0 0 0 0 0 0 0 0 0 127 0"/><feOffset dy="0.160586"/><feGaussianBlur stdDeviation="0.08"/><feComposite in2="hardAlpha" k2="-1" k3="1" operator="arithmetic"/><feColorMatrix values="0 0 0 0 1 0 0 0 0 1 0 0 0 0 1 0 0 0 0.15 0"/><feBlend in2="shape" result="effect2_innerShadow_6466_1278"/></filter><clipPath id="a"><path fill="#fff" d="M0 0h32v32H0z"/></clipPath></defs></svg>