<svg xmlns="http://www.w3.org/2000/svg" width="30" height="28" fill="none" viewBox="0 0 30 28"><g fill-rule="evenodd" clip-rule="evenodd" filter="url(#a)"><path fill="url(#b)" d="M2.737 3.58c-.401.788-.401 1.819-.401 3.88v8.695c0 1.882 0 2.823.366 3.542a3.36 3.36 0 0 0 1.469 1.469c.719.366 1.66.366 3.542.366h.954v.236c0 .986 0 1.479.192 1.855.169.332.438.6.77.77.376.191.869.191 1.854.191h7.118c.986 0 1.478 0 1.855-.191.331-.17.6-.438.77-.77.191-.376.191-.87.191-1.855v-.236h.954c1.882 0 2.823 0 3.542-.366a3.36 3.36 0 0 0 1.469-1.47c.366-.718.366-1.659.366-3.541V6.948c0-1.882 0-2.823-.366-3.542a3.36 3.36 0 0 0-1.469-1.468c-.719-.367-1.66-.367-3.542-.367H8.225c-2.061 0-3.092 0-3.88.401a3.68 3.68 0 0 0-1.608 1.609"/><path fill="url(#c)" d="M2.737 3.58c-.401.788-.401 1.819-.401 3.88v8.695c0 1.882 0 2.823.366 3.542a3.36 3.36 0 0 0 1.469 1.469c.719.366 1.66.366 3.542.366h.954v.236c0 .986 0 1.479.192 1.855.169.332.438.6.77.77.376.191.869.191 1.854.191h7.118c.986 0 1.478 0 1.855-.191.331-.17.6-.438.77-.77.191-.376.191-.87.191-1.855v-.236h.954c1.882 0 2.823 0 3.542-.366a3.36 3.36 0 0 0 1.469-1.47c.366-.718.366-1.659.366-3.541V6.948c0-1.882 0-2.823-.366-3.542a3.36 3.36 0 0 0-1.469-1.468c-.719-.367-1.66-.367-3.542-.367H8.225c-2.061 0-3.092 0-3.88.401a3.68 3.68 0 0 0-1.608 1.609"/><path fill="url(#d)" d="M2.737 3.58c-.401.788-.401 1.819-.401 3.88v8.695c0 1.882 0 2.823.366 3.542a3.36 3.36 0 0 0 1.469 1.469c.719.366 1.66.366 3.542.366h.954v.236c0 .986 0 1.479.192 1.855.169.332.438.6.77.77.376.191.869.191 1.854.191h7.118c.986 0 1.478 0 1.855-.191.331-.17.6-.438.77-.77.191-.376.191-.87.191-1.855v-.236h.954c1.882 0 2.823 0 3.542-.366a3.36 3.36 0 0 0 1.469-1.47c.366-.718.366-1.659.366-3.541V6.948c0-1.882 0-2.823-.366-3.542a3.36 3.36 0 0 0-1.469-1.468c-.719-.367-1.66-.367-3.542-.367H8.225c-2.061 0-3.092 0-3.88.401a3.68 3.68 0 0 0-1.608 1.609"/></g><rect width="1.10878" height="1.10878" x="14.8115" y="6.24121" fill="url(#e)" rx="0.55439"/><path fill="url(#f)" d="M24.207 3.747a1.6 1.6 0 0 1 1.6 1.6v11.151H4.278V5.348a1.6 1.6 0 0 1 1.6-1.6z"/><path fill="url(#g)" d="M24.207 3.747a1.6 1.6 0 0 1 1.6 1.6v11.151H4.278V5.348a1.6 1.6 0 0 1 1.6-1.6z"/><path stroke="url(#h)" stroke-linejoin="bevel" stroke-miterlimit="10" stroke-opacity="0.5" stroke-width="1.12018" d="M24.207 4.307c.574 0 1.04.466 1.04 1.04v10.591H4.838V5.348c0-.575.466-1.04 1.04-1.04z"/><path fill="url(#i)" fill-rule="evenodd" d="M5.798 4.227a1.04 1.04 0 0 0-1.04 1.04v10.75h20.569V5.268a1.04 1.04 0 0 0-1.04-1.04H5.798m-2 13.707V5.267a2 2 0 0 1 2-2h18.488a2 2 0 0 1 2 2v12.667a2 2 0 0 1-2 2h-6.408v2.46h1.368a.48.48 0 1 1 0 .96h-8.5a.48.48 0 1 1 0-.96h1.46v-2.46H5.798a2 2 0 0 1-2-2m21.529-.956H4.758v.956c0 .575.466 1.04 1.04 1.04h18.489a1.04 1.04 0 0 0 1.04-1.04zm-12.16 5.415v-2.459h3.751v2.46zm4.209-11.609a.352.352 0 0 0 0-.61l-3.209-1.852a.352.352 0 0 0-.527.305v3.705c0 .27.293.44.527.305z" clip-rule="evenodd"/><path fill="url(#j)" fill-rule="evenodd" d="M5.798 4.227a1.04 1.04 0 0 0-1.04 1.04v10.75h20.569V5.268a1.04 1.04 0 0 0-1.04-1.04H5.798m-2 13.707V5.267a2 2 0 0 1 2-2h18.488a2 2 0 0 1 2 2v12.667a2 2 0 0 1-2 2h-6.408v2.46h1.368a.48.48 0 1 1 0 .96h-8.5a.48.48 0 1 1 0-.96h1.46v-2.46H5.798a2 2 0 0 1-2-2m21.529-.956H4.758v.956c0 .575.466 1.04 1.04 1.04h18.489a1.04 1.04 0 0 0 1.04-1.04zm-12.16 5.415v-2.459h3.751v2.46zm4.209-11.609a.352.352 0 0 0 0-.61l-3.209-1.852a.352.352 0 0 0-.527.305v3.705c0 .27.293.44.527.305z" clip-rule="evenodd"/><rect width="1.10878" height="1.10878" x="14.5342" y="17.4219" fill="url(#k)" fill-opacity="0.6" rx="0.55439"/><defs><linearGradient id="b" x1="11.0891" x2="13.7893" y1="15.3203" y2="24.5776" gradientUnits="userSpaceOnUse"><stop stop-color="#fff"/><stop offset="1" stop-color="#D7D7D7"/></linearGradient><linearGradient id="c" x1="13.7244" x2="21.3723" y1="1.64408" y2="25.4307" gradientUnits="userSpaceOnUse"><stop stop-color="#322D37"/><stop offset="1" stop-color="#18151B"/></linearGradient><linearGradient id="d" x1="13.782" x2="20.4612" y1="2.51799" y2="24.8424" gradientUnits="userSpaceOnUse"><stop stop-color="#fff"/><stop offset="1" stop-color="#D7D7D7"/></linearGradient><linearGradient id="e" x1="15.3084" x2="15.7118" y1="6.24474" y2="7.37345" gradientUnits="userSpaceOnUse"><stop stop-color="#322D37"/><stop offset="1" stop-color="#18151B"/></linearGradient><linearGradient id="f" x1="13.9265" x2="16.892" y1="3.78767" y2="17.7979" gradientUnits="userSpaceOnUse"><stop stop-color="#322D37"/><stop offset="1" stop-color="#18151B"/></linearGradient><linearGradient id="g" x1="13.9752" x2="16.515" y1="4.27161" y2="17.2512" gradientUnits="userSpaceOnUse"><stop stop-color="#fff"/><stop offset="1" stop-color="#D7D7D7"/></linearGradient><linearGradient id="h" x1="7.5687" x2="14.1274" y1="5.523" y2="17.3948" gradientUnits="userSpaceOnUse"><stop stop-color="#FF00A0"/><stop offset="1" stop-color="#9600FF"/></linearGradient><linearGradient id="i" x1="13.8763" x2="20.139" y1="3.26658" y2="23.5937" gradientUnits="userSpaceOnUse"><stop stop-color="#F3F3F3"/><stop offset="1" stop-color="#8F8F95"/></linearGradient><linearGradient id="j" x1="13.7698" x2="20.2196" y1="3.26658" y2="23.9628" gradientUnits="userSpaceOnUse"><stop stop-color="#4C4C4C"/><stop offset="1" stop-color="#1B1B1F"/></linearGradient><linearGradient id="k" x1="14.7036" x2="15.3757" y1="17.5763" y2="18.2968" gradientUnits="userSpaceOnUse"><stop stop-color="#FF00A0"/><stop offset="1" stop-color="#9600FF"/></linearGradient><filter id="a" width="29.2527" height="26.8543" x="0.415636" y="0.371101" color-interpolation-filters="sRGB" filterUnits="userSpaceOnUse"><feFlood flood-opacity="0" result="BackgroundImageFix"/><feColorMatrix in="SourceAlpha" result="hardAlpha" values="0 0 0 0 0 0 0 0 0 0 0 0 0 0 0 0 0 0 127 0"/><feOffset dy="0.720113"/><feGaussianBlur stdDeviation="0.960151"/><feComposite in2="hardAlpha" operator="out"/><feColorMatrix values="0 0 0 0 0 0 0 0 0 0 0 0 0 0 0 0 0 0 0.25 0"/><feBlend in2="BackgroundImageFix" result="effect1_dropShadow_6466_1241"/><feBlend in="SourceGraphic" in2="effect1_dropShadow_6466_1241" result="shape"/><feColorMatrix in="SourceAlpha" result="hardAlpha" values="0 0 0 0 0 0 0 0 0 0 0 0 0 0 0 0 0 0 127 0"/><feOffset dy="-0.160025"/><feGaussianBlur stdDeviation="0.0800126"/><feComposite in2="hardAlpha" k2="-1" k3="1" operator="arithmetic"/><feColorMatrix values="0 0 0 0 0 0 0 0 0 0 0 0 0 0 0 0 0 0 0.11 0"/><feBlend in2="shape" result="effect2_innerShadow_6466_1241"/></filter></defs></svg>