<svg xmlns="http://www.w3.org/2000/svg" width="32" height="32" fill="none" viewBox="0 0 32 32"><g fill-rule="evenodd" clip-rule="evenodd" filter="url(#a)"><path fill="url(#b)" d="M3.737 6.581c-.401.787-.401 1.818-.401 3.88v8.694c0 1.882 0 2.823.366 3.542a3.36 3.36 0 0 0 1.469 1.469c.719.366 1.66.366 3.542.366h.954v.085c0 .986 0 1.479.192 1.855.169.332.438.601.77.77.376.192.869.192 1.854.192h7.118c.985 0 1.478 0 1.855-.192.331-.169.6-.438.77-.77.191-.376.191-.869.191-1.855v-.085h.954c1.882 0 2.823 0 3.542-.366a3.36 3.36 0 0 0 1.469-1.469c.366-.719.366-1.66.366-3.542V9.948c0-1.882 0-2.823-.366-3.542a3.36 3.36 0 0 0-1.469-1.468c-.719-.367-1.66-.367-3.542-.367H9.225c-2.061 0-3.092 0-3.88.402A3.68 3.68 0 0 0 3.738 6.58"/><path fill="url(#c)" d="M3.737 6.581c-.401.787-.401 1.818-.401 3.88v8.694c0 1.882 0 2.823.366 3.542a3.36 3.36 0 0 0 1.469 1.469c.719.366 1.66.366 3.542.366h.954v.085c0 .986 0 1.479.192 1.855.169.332.438.601.77.77.376.192.869.192 1.854.192h7.118c.985 0 1.478 0 1.855-.192.331-.169.6-.438.77-.77.191-.376.191-.869.191-1.855v-.085h.954c1.882 0 2.823 0 3.542-.366a3.36 3.36 0 0 0 1.469-1.469c.366-.719.366-1.66.366-3.542V9.948c0-1.882 0-2.823-.366-3.542a3.36 3.36 0 0 0-1.469-1.468c-.719-.367-1.66-.367-3.542-.367H9.225c-2.061 0-3.092 0-3.88.402A3.68 3.68 0 0 0 3.738 6.58"/></g><rect width="1.10878" height="1.10878" x="15.8115" y="9.24182" fill="url(#d)" rx="0.55439"/><path fill="url(#e)" d="M25.207 6.747a1.6 1.6 0 0 1 1.6 1.6v11.151H5.278V8.348a1.6 1.6 0 0 1 1.6-1.6z"/><path stroke="url(#f)" stroke-linejoin="bevel" stroke-miterlimit="10" stroke-opacity="0.5" stroke-width="1.12018" d="M25.207 7.307c.574 0 1.04.466 1.04 1.04v10.591H5.838V8.348c0-.575.466-1.04 1.04-1.04z"/><path fill="url(#g)" fill-rule="evenodd" d="M6.798 7.227a1.04 1.04 0 0 0-1.04 1.04v10.751h20.569V8.268a1.04 1.04 0 0 0-1.04-1.04H6.798m-2 13.708V8.268a2 2 0 0 1 2-2.001h18.488a2 2 0 0 1 2 2v12.668a2 2 0 0 1-2 2h-6.408v2.458h1.368a.48.48 0 0 1 0 .96h-8.5a.48.48 0 0 1 0-.96h1.46v-2.458H6.798a2 2 0 0 1-2-2m21.529-.957H5.758v.956c0 .575.466 1.04 1.04 1.04h18.489a1.04 1.04 0 0 0 1.04-1.04zm-12.16 5.415v-2.458h3.751v2.458zm4.209-11.609a.352.352 0 0 0 0-.609l-3.209-1.852a.352.352 0 0 0-.527.304v3.705c0 .271.293.44.527.305z" clip-rule="evenodd"/><rect width="1.10878" height="1.10878" x="15.5342" y="20.422" fill="url(#h)" fill-opacity="0.6" rx="0.55439"/><defs><linearGradient id="b" x1="12.0891" x2="14.7893" y1="18.3204" y2="27.5777" gradientUnits="userSpaceOnUse"><stop stop-color="#fff"/><stop offset="1" stop-color="#D7D7D7"/></linearGradient><linearGradient id="c" x1="14.7244" x2="22.3723" y1="4.6442" y2="28.4308" gradientUnits="userSpaceOnUse"><stop stop-color="#322D37"/><stop offset="1" stop-color="#18151B"/></linearGradient><linearGradient id="d" x1="16.3084" x2="16.7118" y1="9.24535" y2="10.3741" gradientUnits="userSpaceOnUse"><stop stop-color="#322D37"/><stop offset="1" stop-color="#18151B"/></linearGradient><linearGradient id="e" x1="14.9265" x2="17.892" y1="6.78767" y2="20.7979" gradientUnits="userSpaceOnUse"><stop stop-color="#322D37"/><stop offset="1" stop-color="#18151B"/></linearGradient><linearGradient id="f" x1="8.5687" x2="15.1274" y1="8.523" y2="20.3948" gradientUnits="userSpaceOnUse"><stop stop-color="#FF00A0"/><stop offset="1" stop-color="#9600FF"/></linearGradient><linearGradient id="g" x1="14.8763" x2="21.139" y1="6.26695" y2="26.5941" gradientUnits="userSpaceOnUse"><stop stop-color="#F3F3F3"/><stop offset="1" stop-color="#8F8F95"/></linearGradient><linearGradient id="h" x1="15.7036" x2="16.3757" y1="20.5764" y2="21.2969" gradientUnits="userSpaceOnUse"><stop stop-color="#FF00A0"/><stop offset="1" stop-color="#9600FF"/></linearGradient><filter id="a" width="29.2527" height="26.7028" x="1.41564" y="3.37122" color-interpolation-filters="sRGB" filterUnits="userSpaceOnUse"><feFlood flood-opacity="0" result="BackgroundImageFix"/><feColorMatrix in="SourceAlpha" result="hardAlpha" values="0 0 0 0 0 0 0 0 0 0 0 0 0 0 0 0 0 0 127 0"/><feOffset dy="0.720113"/><feGaussianBlur stdDeviation="0.960151"/><feComposite in2="hardAlpha" operator="out"/><feColorMatrix values="0 0 0 0 0 0 0 0 0 0 0 0 0 0 0 0 0 0 0.25 0"/><feBlend in2="BackgroundImageFix" result="effect1_dropShadow_6425_1340"/><feBlend in="SourceGraphic" in2="effect1_dropShadow_6425_1340" result="shape"/><feColorMatrix in="SourceAlpha" result="hardAlpha" values="0 0 0 0 0 0 0 0 0 0 0 0 0 0 0 0 0 0 127 0"/><feOffset dy="-0.160025"/><feGaussianBlur stdDeviation="0.0800126"/><feComposite in2="hardAlpha" k2="-1" k3="1" operator="arithmetic"/><feColorMatrix values="0 0 0 0 0 0 0 0 0 0 0 0 0 0 0 0 0 0 0.11 0"/><feBlend in2="shape" result="effect2_innerShadow_6425_1340"/></filter></defs></svg>